<svg width="60" height="250" viewBox="0 0 60 250" fill="none" xmlns="http://www.w3.org/2000/svg">
<rect width="60" height="250" rx="10" fill="#F7F7F7"/>
<path d="M18.25 33.5L15.94 30.8L19.42 27.86C18.74 26.4 18.4 24.78 18.4 23C18.4 20.86 18.86 19 19.78 17.42C20.72 15.86 22.07 14.66 23.83 13.82C25.61 12.98 27.72 12.56 30.16 12.56C32.58 12.56 34.67 12.98 36.43 13.82C38.21 14.68 39.56 15.89 40.48 17.45C41.42 19.01 41.89 20.86 41.89 23C41.89 25.14 41.42 26.99 40.48 28.55C39.56 30.13 38.21 31.34 36.43 32.18C34.67 33.04 32.58 33.47 30.16 33.47C26.5 33.47 23.63 32.54 21.55 30.68L18.25 33.5ZM21.73 23C21.73 23.94 21.88 24.78 22.18 25.52L24.61 23.45L26.92 26.12L24.37 28.28C25.83 29.3 27.76 29.81 30.16 29.81C32.8 29.81 34.86 29.2 36.34 27.98C37.82 26.76 38.56 25.1 38.56 23C38.56 20.92 37.82 19.27 36.34 18.05C34.86 16.83 32.8 16.22 30.16 16.22C27.52 16.22 25.45 16.83 23.95 18.05C22.47 19.27 21.73 20.92 21.73 23ZM35.44 51.0434H18.82V47.5934H21.04V47.4134C20.24 46.9334 19.6 46.2534 19.12 45.3734C18.64 44.4934 18.4 43.5434 18.4 42.5234C18.4 40.7634 18.95 39.3834 20.05 38.3834C21.15 37.3834 22.7 36.8834 24.7 36.8834H35.44V40.3034H25.39C24.23 40.3034 23.3 40.6134 22.6 41.2334C21.9 41.8734 21.55 42.6834 21.55 43.6634C21.55 44.8434 21.93 45.7934 22.69 46.5134C23.45 47.2334 24.45 47.5934 25.69 47.5934H35.44V51.0434ZM40.42 59.251C39.76 59.251 39.23 59.051 38.83 58.651C38.45 58.251 38.26 57.721 38.26 57.061C38.26 56.401 38.45 55.881 38.83 55.501C39.21 55.121 39.74 54.931 40.42 54.931C41.08 54.931 41.6 55.121 41.98 55.501C42.38 55.881 42.58 56.401 42.58 57.061C42.58 57.721 42.38 58.251 41.98 58.651C41.6 59.051 41.08 59.251 40.42 59.251ZM35.44 58.801H18.82V55.381H35.44V58.801ZM18.4 70.337C18.4 68.737 18.76 67.327 19.48 66.107C20.2 64.907 21.21 63.977 22.51 63.317C23.83 62.677 25.37 62.357 27.13 62.357C28.89 62.357 30.42 62.677 31.72 63.317C33.04 63.977 34.05 64.907 34.75 66.107C35.47 67.327 35.83 68.737 35.83 70.337C35.83 71.637 35.49 72.857 34.81 73.997C34.15 75.137 33.26 76.027 32.14 76.667L30.25 73.967C30.99 73.527 31.56 72.977 31.96 72.317C32.38 71.677 32.59 70.967 32.59 70.187C32.59 68.867 32.09 67.817 31.09 67.037C30.11 66.277 28.79 65.897 27.13 65.897C25.45 65.897 24.11 66.277 23.11 67.037C22.11 67.817 21.61 68.857 21.61 70.157C21.61 70.937 21.81 71.657 22.21 72.317C22.63 72.977 23.21 73.527 23.95 73.967L22.09 76.667C20.97 76.027 20.07 75.137 19.39 73.997C18.73 72.857 18.4 71.637 18.4 70.337ZM18.82 94.3276V90.0076L26.53 85.3276L24.28 83.1976H18.82V79.7776H41.5V83.1976H28.54L35.44 89.6176V93.8776L29.11 87.8176L18.82 94.3276ZM22.81 114.312C21.45 113.472 20.37 112.342 19.57 110.922C18.79 109.522 18.4 107.912 18.4 106.092C18.4 103.972 18.88 102.102 19.84 100.482C20.82 98.8816 22.21 97.6316 24.01 96.7316C25.81 95.8516 27.9 95.4116 30.28 95.4116C32.62 95.4116 34.67 95.8516 36.43 96.7316C38.19 97.6116 39.54 98.8616 40.48 100.482C41.44 102.102 41.92 103.972 41.92 106.092C41.92 107.892 41.52 109.502 40.72 110.922C39.92 112.362 38.84 113.492 37.48 114.312L35.53 111.462C36.47 110.862 37.21 110.072 37.75 109.092C38.29 108.132 38.56 107.132 38.56 106.092C38.56 104.672 38.22 103.432 37.54 102.372C36.88 101.312 35.92 100.502 34.66 99.9416C33.42 99.3816 31.96 99.1016 30.28 99.1016C28.56 99.1016 27.05 99.3816 25.75 99.9416C24.47 100.522 23.48 101.332 22.78 102.372C22.08 103.432 21.73 104.672 21.73 106.092C21.73 107.132 22 108.122 22.54 109.062C23.08 110.022 23.84 110.822 24.82 111.462L22.81 114.312ZM41.5 117.571V120.991H23.02C22.64 120.991 22.35 121.091 22.15 121.291C21.95 121.491 21.85 121.781 21.85 122.161V122.971H18.61V121.231C18.61 120.031 18.9 119.121 19.48 118.501C20.06 117.881 20.9 117.571 22 117.571H41.5ZM18.4 130.628C18.4 129.048 18.82 127.748 19.66 126.728C20.52 125.728 21.66 125.228 23.08 125.228C24.88 125.228 26.3 125.928 27.34 127.328C28.4 128.748 28.93 130.678 28.93 133.118V135.578H29.68C30.66 135.578 31.43 135.258 31.99 134.618C32.57 133.998 32.86 133.168 32.86 132.128C32.86 130.688 32.25 129.518 31.03 128.618L32.77 126.128C34.83 127.588 35.86 129.658 35.86 132.338C35.86 134.338 35.3 135.948 34.18 137.168C33.06 138.408 31.55 139.028 29.65 139.028H18.82V135.578H21.01V135.398C20.19 134.978 19.55 134.328 19.09 133.448C18.63 132.588 18.4 131.648 18.4 130.628ZM21.34 131.498C21.34 132.118 21.47 132.738 21.73 133.358C21.99 133.998 22.39 134.528 22.93 134.948C23.47 135.368 24.12 135.578 24.88 135.578H25.96V133.808C25.96 132.128 25.73 130.868 25.27 130.028C24.83 129.188 24.17 128.768 23.29 128.768C22.71 128.768 22.24 129.018 21.88 129.518C21.52 130.018 21.34 130.678 21.34 131.498ZM18.4 148.584C18.4 146.944 18.74 145.524 19.42 144.324C20.1 143.144 21 142.264 22.12 141.684L23.92 144.294C23.08 144.794 22.44 145.414 22 146.154C21.56 146.894 21.34 147.714 21.34 148.614C21.34 149.534 21.51 150.244 21.85 150.744C22.19 151.244 22.66 151.494 23.26 151.494C23.84 151.494 24.32 151.224 24.7 150.684C25.1 150.164 25.43 149.314 25.69 148.134C26.15 146.174 26.8 144.684 27.64 143.664C28.48 142.664 29.57 142.164 30.91 142.164C32.41 142.164 33.61 142.734 34.51 143.874C35.41 145.014 35.86 146.544 35.86 148.464C35.86 149.904 35.55 151.164 34.93 152.244C34.31 153.324 33.46 154.204 32.38 154.884L30.55 152.274C31.31 151.814 31.89 151.254 32.29 150.594C32.69 149.934 32.89 149.224 32.89 148.464C32.89 147.604 32.72 146.924 32.38 146.424C32.04 145.924 31.58 145.674 31 145.674C30.48 145.674 30.02 145.964 29.62 146.544C29.22 147.144 28.87 148.064 28.57 149.304C27.73 153.104 26.07 155.004 23.59 155.004C22.01 155.004 20.75 154.414 19.81 153.234C18.87 152.074 18.4 150.524 18.4 148.584ZM18.4 163.672C18.4 162.032 18.74 160.612 19.42 159.412C20.1 158.232 21 157.352 22.12 156.772L23.92 159.382C23.08 159.882 22.44 160.502 22 161.242C21.56 161.982 21.34 162.802 21.34 163.702C21.34 164.622 21.51 165.332 21.85 165.832C22.19 166.332 22.66 166.582 23.26 166.582C23.84 166.582 24.32 166.312 24.7 165.772C25.1 165.252 25.43 164.402 25.69 163.222C26.15 161.262 26.8 159.772 27.64 158.752C28.48 157.752 29.57 157.252 30.91 157.252C32.41 157.252 33.61 157.822 34.51 158.962C35.41 160.102 35.86 161.632 35.86 163.552C35.86 164.992 35.55 166.252 34.93 167.332C34.31 168.412 33.46 169.292 32.38 169.972L30.55 167.362C31.31 166.902 31.89 166.342 32.29 165.682C32.69 165.022 32.89 164.312 32.89 163.552C32.89 162.692 32.72 162.012 32.38 161.512C32.04 161.012 31.58 160.762 31 160.762C30.48 160.762 30.02 161.052 29.62 161.632C29.22 162.232 28.87 163.152 28.57 164.392C27.73 168.192 26.07 170.092 23.59 170.092C22.01 170.092 20.75 169.502 19.81 168.322C18.87 167.162 18.4 165.612 18.4 163.672Z" fill="black"/>
<path d="M32.29 196.579H41.5V200.119H18.82V196.579H28.96V185.599H18.82V182.029H41.5V185.599H32.29V196.579ZM35.44 218.358H18.82V214.908H21.04V214.728C20.24 214.248 19.6 213.568 19.12 212.688C18.64 211.808 18.4 210.858 18.4 209.838C18.4 208.078 18.95 206.698 20.05 205.698C21.15 204.698 22.7 204.198 24.7 204.198H35.44V207.618H25.39C24.23 207.618 23.3 207.928 22.6 208.548C21.9 209.188 21.55 209.998 21.55 210.978C21.55 212.158 21.93 213.108 22.69 213.828C23.45 214.548 24.45 214.908 25.69 214.908H35.44V218.358ZM18.82 222.365H41.5V225.785H33.22V225.965C34.04 226.545 34.68 227.255 35.14 228.095C35.6 228.955 35.83 229.875 35.83 230.855C35.83 232.195 35.47 233.385 34.75 234.425C34.05 235.465 33.06 236.275 31.78 236.855C30.5 237.435 29.03 237.725 27.37 237.725C25.61 237.725 24.05 237.435 22.69 236.855C21.33 236.275 20.27 235.465 19.51 234.425C18.77 233.385 18.4 232.195 18.4 230.855C18.4 229.815 18.63 228.875 19.09 228.035C19.55 227.195 20.2 226.505 21.04 225.965V225.785H18.82V222.365ZM27.13 225.665C25.51 225.665 24.19 226.045 23.17 226.805C22.17 227.585 21.67 228.595 21.67 229.835C21.67 231.135 22.17 232.185 23.17 232.985C24.19 233.805 25.51 234.215 27.13 234.215C28.73 234.215 30.03 233.815 31.03 233.015C32.05 232.235 32.56 231.215 32.56 229.955C32.56 228.695 32.05 227.665 31.03 226.865C30.03 226.065 28.73 225.665 27.13 225.665Z" fill="#0062FF"/>
</svg>
